<svg xmlns="http://www.w3.org/2000/svg" version="1.1" xmlns:xlink="http://www.w3.org/1999/xlink" xmlns:svgjs="http://svgjs.com/svgjs" width="1440" height="560" preserveAspectRatio="none" viewBox="0 0 1440 560">
    <g mask="url(&quot;#SvgjsMask1016&quot;)" fill="none">
        <rect width="1440" height="560" x="0" y="0" fill="url(#SvgjsLinearGradient1017)"></rect>
        <path d="M687 240L421 506" stroke-width="8" stroke="url(#SvgjsLinearGradient1018)" stroke-linecap="round" class="BottomLeft"></path>
        <path d="M741 449L1030 160" stroke-width="10" stroke="url(#SvgjsLinearGradient1019)" stroke-linecap="round" class="TopRight"></path>
        <path d="M32 132L267 -103" stroke-width="10" stroke="url(#SvgjsLinearGradient1019)" stroke-linecap="round" class="TopRight"></path>
        <path d="M191 85L478 -202" stroke-width="10" stroke="url(#SvgjsLinearGradient1018)" stroke-linecap="round" class="BottomLeft"></path>
        <path d="M882 321L642 561" stroke-width="8" stroke="url(#SvgjsLinearGradient1018)" stroke-linecap="round" class="BottomLeft"></path>
        <path d="M1255 163L954 464" stroke-width="6" stroke="url(#SvgjsLinearGradient1019)" stroke-linecap="round" class="TopRight"></path>
        <path d="M1028 107L712 423" stroke-width="6" stroke="url(#SvgjsLinearGradient1019)" stroke-linecap="round" class="TopRight"></path>
        <path d="M1289 343L1514 118" stroke-width="10" stroke="url(#SvgjsLinearGradient1018)" stroke-linecap="round" class="BottomLeft"></path>
        <path d="M1082 171L879 374" stroke-width="6" stroke="url(#SvgjsLinearGradient1019)" stroke-linecap="round" class="TopRight"></path>
        <path d="M1051 360L1390 21" stroke-width="10" stroke="url(#SvgjsLinearGradient1019)" stroke-linecap="round" class="TopRight"></path>
        <path d="M1083 171L903 351" stroke-width="8" stroke="url(#SvgjsLinearGradient1018)" stroke-linecap="round" class="BottomLeft"></path>
        <path d="M673 503L271 905" stroke-width="10" stroke="url(#SvgjsLinearGradient1019)" stroke-linecap="round" class="TopRight"></path>
        <path d="M493 15L279 229" stroke-width="6" stroke="url(#SvgjsLinearGradient1018)" stroke-linecap="round" class="BottomLeft"></path>
        <path d="M273 402L505 170" stroke-width="10" stroke="url(#SvgjsLinearGradient1018)" stroke-linecap="round" class="BottomLeft"></path>
        <path d="M900 305L1185 20" stroke-width="10" stroke="url(#SvgjsLinearGradient1019)" stroke-linecap="round" class="TopRight"></path>
        <path d="M598 212L957 -147" stroke-width="6" stroke="url(#SvgjsLinearGradient1019)" stroke-linecap="round" class="TopRight"></path>
        <path d="M226 489L532 183" stroke-width="10" stroke="url(#SvgjsLinearGradient1018)" stroke-linecap="round" class="BottomLeft"></path>
        <path d="M979 487L565 901" stroke-width="6" stroke="url(#SvgjsLinearGradient1019)" stroke-linecap="round" class="TopRight"></path>
        <path d="M1043 72L667 448" stroke-width="8" stroke="url(#SvgjsLinearGradient1018)" stroke-linecap="round" class="BottomLeft"></path>
        <path d="M397 507L110 794" stroke-width="6" stroke="url(#SvgjsLinearGradient1018)" stroke-linecap="round" class="BottomLeft"></path>
        <path d="M418 176L612 -18" stroke-width="10" stroke="url(#SvgjsLinearGradient1019)" stroke-linecap="round" class="TopRight"></path>
        <path d="M777 96L922 -49" stroke-width="8" stroke="url(#SvgjsLinearGradient1019)" stroke-linecap="round" class="TopRight"></path>
        <path d="M1330 216L1604 -58" stroke-width="8" stroke="url(#SvgjsLinearGradient1019)" stroke-linecap="round" class="TopRight"></path>
        <path d="M784 233L370 647" stroke-width="6" stroke="url(#SvgjsLinearGradient1019)" stroke-linecap="round" class="TopRight"></path>
        <path d="M295 315L138 472" stroke-width="6" stroke="url(#SvgjsLinearGradient1019)" stroke-linecap="round" class="TopRight"></path>
        <path d="M1425 521L1772 174" stroke-width="6" stroke="url(#SvgjsLinearGradient1019)" stroke-linecap="round" class="TopRight"></path>
        <path d="M849 558L596 811" stroke-width="10" stroke="url(#SvgjsLinearGradient1019)" stroke-linecap="round" class="TopRight"></path>
        <path d="M559 241L745 55" stroke-width="8" stroke="url(#SvgjsLinearGradient1019)" stroke-linecap="round" class="TopRight"></path>
        <path d="M84 145L386 -157" stroke-width="10" stroke="url(#SvgjsLinearGradient1019)" stroke-linecap="round" class="TopRight"></path>
        <path d="M110 321L342 89" stroke-width="6" stroke="url(#SvgjsLinearGradient1019)" stroke-linecap="round" class="TopRight"></path>
        <path d="M744 506L381 869" stroke-width="10" stroke="url(#SvgjsLinearGradient1018)" stroke-linecap="round" class="BottomLeft"></path>
        <path d="M866 123L456 533" stroke-width="6" stroke="url(#SvgjsLinearGradient1018)" stroke-linecap="round" class="BottomLeft"></path>
        <path d="M1428 338L1128 638" stroke-width="10" stroke="url(#SvgjsLinearGradient1019)" stroke-linecap="round" class="TopRight"></path>
        <path d="M937 271L796 412" stroke-width="6" stroke="url(#SvgjsLinearGradient1019)" stroke-linecap="round" class="TopRight"></path>
        <path d="M629 363L211 781" stroke-width="10" stroke="url(#SvgjsLinearGradient1018)" stroke-linecap="round" class="BottomLeft"></path>
        <path d="M219 180L374 25" stroke-width="6" stroke="url(#SvgjsLinearGradient1019)" stroke-linecap="round" class="TopRight"></path>
        <path d="M1419 380L1714 85" stroke-width="8" stroke="url(#SvgjsLinearGradient1018)" stroke-linecap="round" class="BottomLeft"></path>
        <path d="M1189 54L1504 -261" stroke-width="10" stroke="url(#SvgjsLinearGradient1019)" stroke-linecap="round" class="TopRight"></path>
        <path d="M1420 321L1808 -67" stroke-width="10" stroke="url(#SvgjsLinearGradient1019)" stroke-linecap="round" class="TopRight"></path>
    </g>
    <defs>
        <mask id="SvgjsMask1016">
            <rect width="1440" height="560" fill="#ffffff"></rect>
        </mask>
        <linearGradient x1="15.28%" y1="-39.29%" x2="84.72%" y2="139.29%" gradientUnits="userSpaceOnUse" id="SvgjsLinearGradient1017">
            <stop stop-color="#0e2a47" offset="0"></stop>
            <stop stop-color="#00459e" offset="1"></stop>
        </linearGradient>
        <linearGradient x1="100%" y1="0%" x2="0%" y2="100%" id="SvgjsLinearGradient1018">
            <stop stop-color="rgba(28, 83, 142, 0)" offset="0"></stop>
            <stop stop-color="#1c538e" offset="1"></stop>
        </linearGradient>
        <linearGradient x1="0%" y1="100%" x2="100%" y2="0%" id="SvgjsLinearGradient1019">
            <stop stop-color="rgba(28, 83, 142, 0)" offset="0"></stop>
            <stop stop-color="#1c538e" offset="1"></stop>
        </linearGradient>
    </defs>
</svg>